# xmcd CD database file
#
# Track frame offsets:
#	150
#	16352
#	30893
#	47672
#	64249
#	79805
#	91675
#	103285
#	124156
#	141226
#	161960
#	180458
#
# Disc length: 2610 seconds
#
# Revision: 0
# Processed by: cddbd v1.5.2PL0 Copyright (c) Steve Scherf et al.
# Submitted via: CDex 1.77
#
DISCID=9a0a300c
DTITLE=Blitzen Trapper - VII
DYEAR=2013
DGENRE=Country
TTITLE0=Feel The Chill
TTITLE1=Shine On
TTITLE2=Ever Loved Once
TTITLE3=Thirsty Man
TTITLE4=Valley Of Death
TTITLE5=Oregon Geography
TTITLE6=Neck Tatts, Cadillacs
TTITLE7=Earth (Fever Called Love)
TTITLE8=Drive On Up
TTITLE9=Heart Attack
TTITLE10=Faces Of You
TTITLE11=Don't Be A Stranger
EXTD=YEAR: 2013
EXTT0=
EXTT1=
EXTT2=
EXTT3=
EXTT4=
EXTT5=
EXTT6=
EXTT7=
EXTT8=
EXTT9=
EXTT10=
EXTT11=
PLAYORDER=
